<?xml version="1.0" standalone="no"?>
<svg xmlns:xlink="http://www.w3.org/1999/xlink" id="wave" style="transform:rotate(180deg); transition: 0.3s" viewBox="0 0 1440 490" version="1.1" xmlns="http://www.w3.org/2000/svg"><defs><linearGradient id="sw-gradient-0" x1="0" x2="0" y1="1" y2="0"><stop stop-color="rgba(4.924, 4.626, 4.53, 0.91)" offset="0%"/><stop stop-color="rgba(11, 225.241, 255, 1)" offset="100%"/></linearGradient></defs><path style="transform:translate(0, 0px); opacity:1" fill="url(#sw-gradient-0)" d="M0,98L80,147C160,196,320,294,480,302.2C640,310,800,229,960,236.8C1120,245,1280,343,1440,367.5C1600,392,1760,343,1920,334.8C2080,327,2240,359,2400,383.8C2560,408,2720,425,2880,367.5C3040,310,3200,180,3360,106.2C3520,33,3680,16,3840,49C4000,82,4160,163,4320,236.8C4480,310,4640,376,4800,400.2C4960,425,5120,408,5280,400.2C5440,392,5600,392,5760,334.8C5920,278,6080,163,6240,138.8C6400,114,6560,180,6720,179.7C6880,180,7040,114,7200,122.5C7360,131,7520,212,7680,253.2C7840,294,8000,294,8160,310.3C8320,327,8480,359,8640,343C8800,327,8960,261,9120,245C9280,229,9440,261,9600,228.7C9760,196,9920,98,10080,122.5C10240,147,10400,294,10560,326.7C10720,359,10880,278,11040,204.2C11200,131,11360,65,11440,32.7L11520,0L11520,490L11440,490C11360,490,11200,490,11040,490C10880,490,10720,490,10560,490C10400,490,10240,490,10080,490C9920,490,9760,490,9600,490C9440,490,9280,490,9120,490C8960,490,8800,490,8640,490C8480,490,8320,490,8160,490C8000,490,7840,490,7680,490C7520,490,7360,490,7200,490C7040,490,6880,490,6720,490C6560,490,6400,490,6240,490C6080,490,5920,490,5760,490C5600,490,5440,490,5280,490C5120,490,4960,490,4800,490C4640,490,4480,490,4320,490C4160,490,4000,490,3840,490C3680,490,3520,490,3360,490C3200,490,3040,490,2880,490C2720,490,2560,490,2400,490C2240,490,2080,490,1920,490C1760,490,1600,490,1440,490C1280,490,1120,490,960,490C800,490,640,490,480,490C320,490,160,490,80,490L0,490Z"/></svg>